<svg viewBox="0 0 343.35 164.592" xmlns="http://www.w3.org/2000/svg" xmlns:xlink="http://www.w3.org/1999/xlink" width="343.350037" height="164.592010" fill="none" customFrame="#000000">
	<path id="path" d="M292.6 63.155C284.12 63.155 276.13 65.252 269.09 68.917C261.03 54.013 245.25 43.886 227.11 43.886C220.23 43.886 213.7 45.355 207.81 47.965C198.72 20.125 172.56 0 141.67 0C107.46 0 79.04 24.689 73.23 57.222C67.6 55.268 61.55 54.198 55.2399 54.198C24.7399 54.198 0 78.916 0 109.395C0 139.874 24.7399 164.592 55.2399 164.592L292.6 164.592C320.63 164.592 343.35 141.885 343.35 113.873C343.35 85.861 320.63 63.155 292.6 63.155Z" fill="rgb(255,255,255)" fill-opacity="0.800000012" fill-rule="nonzero" />
</svg>
